<svg xmlns="http://www.w3.org/2000/svg" viewBox="0 0 607.45 612.98"><defs><style>.cls-1{fill:#fff;}</style></defs><g id="Layer_2" data-name="Layer 2"><g id="Layer_1-2" data-name="Layer 1"><path class="cls-1" d="M136.57,251a125.35,125.35,0,0,0,44.68-4.81l51.69,60.47,78.78-74L260.53,176.5A125.68,125.68,0,0,0,103.62,7.21L168.3,81.12a13,13,0,0,1-1.14,18.28l-50,42.36a12.94,12.94,0,0,1-18.28-1.14L34.49,67A125.68,125.68,0,0,0,136.57,251Z"/><path class="cls-1" d="M383.86,315.16,306,388.24,459,562.05c23.28,26.48,59.9,32.35,81.78,13.11s20.75-56.31-2.53-82.79ZM498.31,547.4a21.79,21.79,0,1,1,21.79-21.79A21.79,21.79,0,0,1,498.31,547.4Z"/><path class="cls-1" d="M603.19,87.13c-11.21-13.21-26.78-29.29-28-30.53-1.73-1.94-25.28-28.16-35.68-37.21a17.85,17.85,0,0,0-12-4.57c-13,0-24.95,13.38-26.81,15.58-1.93,2-24.39,25.13-49.41,54.73-6.4,7.57-6.77,32.69-6.63,43.15L114.26,450.56l-3.46,0c-21.33,0-34.71,2.14-39.78,6.37C41.27,481.76,18,504.08,16,506c-2.14,1.8-15.2,13.25-16,25.73A17.27,17.27,0,0,0,4.9,544.9c11.92,12.58,28.34,27.77,29.61,29,1.84,1.83,26.79,26.73,37.67,35.2A17.89,17.89,0,0,0,83.38,613c13.46,0,25.14-14.67,26.94-17.05,1.82-2.09,23-26.44,46.33-57.36,5.95-7.87,5-32.75,4.27-43.29L489,175.34c3.28.22,9.65.59,16.55.59h0c18.54,0,24.18-2.61,26.81-4.57,31.08-23.18,55.56-44.19,57.64-46,2.24-1.68,15.91-12.4,17.35-24.82A17.25,17.25,0,0,0,603.19,87.13Z"/></g></g></svg>